<svg width="32" height="32" viewBox="0 0 32 32" fill="none" xmlns="http://www.w3.org/2000/svg">
<rect width="32" height="32" rx="5" fill="#101A34"/>
<path d="M15.4011 19.64L14.4411 22.08C14.3078 22.4533 14.1878 22.84 14.0811 23.24C13.9744 23.64 13.8611 23.9867 13.7411 24.28C13.6211 24.5867 13.4344 24.8267 13.1811 25C12.9411 25.1733 12.6678 25.3 12.3611 25.38C12.0544 25.4733 11.7344 25.5133 11.4011 25.5C11.0811 25.4867 10.7944 25.4267 10.5411 25.32C9.96776 25.0533 9.76776 24.6133 9.94109 24C10.5544 21.3067 11.1278 19.1467 11.6611 17.52C12.2078 15.8933 12.6544 14.6133 13.0011 13.68C13.3611 12.7467 13.7344 11.76 14.1211 10.72C14.1611 10.3333 14.3211 9.98667 14.6011 9.68C14.8811 9.37333 15.2078 9.12 15.5811 8.92C15.9678 8.72 16.3678 8.58 16.7811 8.5C17.1944 8.40667 17.5611 8.39333 17.8811 8.46C18.2011 8.52667 18.4344 8.67333 18.5811 8.9C18.7411 9.12667 18.7544 9.45333 18.6211 9.88C18.1411 11.1067 17.8011 11.9733 17.6011 12.48C17.4011 12.9867 17.2211 13.44 17.0611 13.84L16.5011 15.16C16.7811 15.1733 17.1344 15.1333 17.5611 15.04C18.3344 14.8667 18.8944 14.8067 19.2411 14.86C19.2411 14.7933 19.2744 14.68 19.3411 14.52C19.7144 12.8933 20.1344 11.4 20.6011 10.04C20.9344 8.92 21.7944 8.33333 23.1811 8.28C23.7278 8.28 24.1411 8.41333 24.4211 8.68C24.7278 8.96 24.7678 9.34 24.5411 9.82C23.3144 13.26 22.4478 15.9733 21.9411 17.96C21.3678 20.2533 20.9878 21.8 20.8011 22.6C20.6278 23.4 20.4744 23.8733 20.3411 24.02C20.2078 24.1667 20.0678 24.2667 19.9211 24.32C19.7878 24.3867 19.6544 24.4467 19.5211 24.5C19.3878 24.5533 19.2811 24.6867 19.2011 24.9H19.1411C19.0344 25.14 18.8011 25.3267 18.4411 25.46C18.0811 25.5933 17.7144 25.64 17.3411 25.6C16.9811 25.5733 16.6744 25.44 16.4211 25.2C16.1811 24.9733 16.1211 24.62 16.2411 24.14C16.3744 23.38 16.5944 22.5667 16.9011 21.7C17.2078 20.82 17.4478 20.1333 17.6211 19.64C17.8078 19.1467 17.9611 18.6867 18.0811 18.26C17.9744 18.3133 17.8678 18.3533 17.7611 18.38C17.6678 18.4067 17.5478 18.46 17.4011 18.54C17.2544 18.6067 17.1011 18.6667 16.9411 18.72C16.7944 18.7733 16.6478 18.8267 16.5011 18.88C16.1278 19.0267 15.8211 19.1733 15.5811 19.32L15.4011 19.64ZM17.6611 18.3C17.6744 18.3 17.7411 18.28 17.8611 18.24C17.7811 18.2667 17.7144 18.2867 17.6611 18.3Z" fill="#5DE6D1"/>
</svg>
